<mxfile host="app.diagrams.net" modified="2022-01-10T10:09:16.428Z" agent="5.0 (Macintosh; Intel Mac OS X 10_15_7) AppleWebKit/537.36 (KHTML, like Gecko) Chrome/97.0.4692.71 Safari/537.36" etag="iWdpVRoGL4KWHO8X461h" version="16.1.2" type="github">
  <diagram id="OmzNVfIJdslKNLaxX2No" name="第 1 页">
    <mxGraphModel dx="683" dy="403" grid="1" gridSize="10" guides="1" tooltips="1" connect="1" arrows="1" fold="1" page="1" pageScale="1" pageWidth="827" pageHeight="1169" math="0" shadow="0">
      <root>
        <mxCell id="0" />
        <mxCell id="1" parent="0" />
        <mxCell id="Xgk0hEnxSeAhe2udyDZA-2" value="" style="rounded=1;whiteSpace=wrap;html=1;fontFamily=Comic Sans MS;sketch=1;shadow=1;" vertex="1" parent="1">
          <mxGeometry x="130" y="400" width="290" height="120" as="geometry" />
        </mxCell>
        <mxCell id="Xgk0hEnxSeAhe2udyDZA-5" value="&lt;span&gt;bridge pallet account&lt;/span&gt;" style="strokeWidth=2;html=1;shape=mxgraph.flowchart.terminator;whiteSpace=wrap;fontFamily=Comic Sans MS;sketch=1;shadow=1;" vertex="1" parent="1">
          <mxGeometry x="300" y="430" width="100" height="60" as="geometry" />
        </mxCell>
        <mxCell id="Xgk0hEnxSeAhe2udyDZA-12" style="edgeStyle=orthogonalEdgeStyle;rounded=0;orthogonalLoop=1;jettySize=auto;html=1;exitX=0;exitY=0;exitDx=0;exitDy=0;exitPerimeter=0;entryX=1;entryY=0;entryDx=0;entryDy=0;entryPerimeter=0;fontFamily=Comic Sans MS;" edge="1" parent="1" source="Xgk0hEnxSeAhe2udyDZA-6" target="Xgk0hEnxSeAhe2udyDZA-6">
          <mxGeometry relative="1" as="geometry">
            <Array as="points">
              <mxPoint x="253" y="440" />
              <mxPoint x="253" y="440" />
            </Array>
          </mxGeometry>
        </mxCell>
        <mxCell id="Xgk0hEnxSeAhe2udyDZA-13" style="edgeStyle=orthogonalEdgeStyle;rounded=0;orthogonalLoop=1;jettySize=auto;html=1;exitX=1;exitY=1;exitDx=0;exitDy=0;exitPerimeter=0;entryX=1.006;entryY=0.833;entryDx=0;entryDy=0;entryPerimeter=0;fontFamily=Comic Sans MS;" edge="1" parent="1" source="Xgk0hEnxSeAhe2udyDZA-6" target="Xgk0hEnxSeAhe2udyDZA-7">
          <mxGeometry relative="1" as="geometry">
            <Array as="points">
              <mxPoint x="270" y="480" />
              <mxPoint x="270" y="480" />
            </Array>
          </mxGeometry>
        </mxCell>
        <mxCell id="Xgk0hEnxSeAhe2udyDZA-6" value="" style="verticalLabelPosition=bottom;verticalAlign=top;html=1;shape=mxgraph.flowchart.parallel_mode;pointerEvents=1;rotation=0;fontFamily=Comic Sans MS;sketch=1;shadow=0;" vertex="1" parent="1">
          <mxGeometry x="205" y="440" width="95" height="40" as="geometry" />
        </mxCell>
        <mxCell id="Xgk0hEnxSeAhe2udyDZA-7" value="" style="shape=actor;whiteSpace=wrap;html=1;fontFamily=Comic Sans MS;sketch=1;shadow=1;" vertex="1" parent="1">
          <mxGeometry x="165" y="430" width="40" height="60" as="geometry" />
        </mxCell>
        <mxCell id="Xgk0hEnxSeAhe2udyDZA-10" value="Teleport" style="text;html=1;strokeColor=none;fillColor=none;align=center;verticalAlign=middle;whiteSpace=wrap;rounded=0;fontFamily=Comic Sans MS;sketch=1;shadow=1;" vertex="1" parent="1">
          <mxGeometry x="222.5" y="410" width="60" height="30" as="geometry" />
        </mxCell>
        <mxCell id="Xgk0hEnxSeAhe2udyDZA-14" value="Materialize" style="text;html=1;strokeColor=none;fillColor=none;align=center;verticalAlign=middle;whiteSpace=wrap;rounded=0;fontFamily=Comic Sans MS;sketch=1;shadow=1;glass=0;" vertex="1" parent="1">
          <mxGeometry x="222.5" y="480" width="60" height="30" as="geometry" />
        </mxCell>
        <mxCell id="Xgk0hEnxSeAhe2udyDZA-27" value="user locks funds via teleport and calls Materialize to unlock funds" style="shape=callout;whiteSpace=wrap;html=1;perimeter=calloutPerimeter;fontFamily=Comic Sans MS;sketch=1;rounded=1;shadow=1;" vertex="1" parent="1">
          <mxGeometry x="217.5" y="310" width="202.5" height="80" as="geometry" />
        </mxCell>
      </root>
    </mxGraphModel>
  </diagram>
</mxfile>
